<?xml version="1.0" encoding="UTF-8" standalone="no"?>
<!-- Created with Inkscape (http://www.inkscape.org/) -->

<svg
   xmlns:dc="http://purl.org/dc/elements/1.1/"
   xmlns:cc="http://creativecommons.org/ns#"
   xmlns:rdf="http://www.w3.org/1999/02/22-rdf-syntax-ns#"
   xmlns:svg="http://www.w3.org/2000/svg"
   xmlns="http://www.w3.org/2000/svg"
   xmlns:sodipodi="http://sodipodi.sourceforge.net/DTD/sodipodi-0.dtd"
   xmlns:inkscape="http://www.inkscape.org/namespaces/inkscape"
   version="1.1"
   id="svg2"
   xml:space="preserve"
   width="1200"
   height="450"
   viewBox="0 0 960 359.99999"
   sodipodi:docname="docker-horizontal.svg"
   inkscape:export-filename="/home/sio4/downloads/x/docker_logos_2018/RGB/Color/EPS/Horizontal.800.png"
   inkscape:export-xdpi="64"
   inkscape:export-ydpi="64"
   inkscape:version="0.92.2 (5c3e80d, 2017-08-06)"><metadata
     id="metadata8"><rdf:RDF><cc:Work
         rdf:about=""><dc:format>image/svg+xml</dc:format><dc:type
           rdf:resource="http://purl.org/dc/dcmitype/StillImage" /><dc:title></dc:title></cc:Work></rdf:RDF></metadata><defs
     id="defs6" /><sodipodi:namedview
     pagecolor="#ffffff"
     bordercolor="#666666"
     borderopacity="1"
     objecttolerance="10"
     gridtolerance="10"
     guidetolerance="10"
     inkscape:pageopacity="0"
     inkscape:pageshadow="2"
     inkscape:window-width="1706"
     inkscape:window-height="905"
     id="namedview4"
     showgrid="false"
     scale-x="0.8"
     inkscape:zoom="0.68860476"
     inkscape:cx="417.91818"
     inkscape:cy="230.46782"
     inkscape:window-x="83"
     inkscape:window-y="60"
     inkscape:window-maximized="0"
     inkscape:current-layer="g10" /><g
     id="g10"
     inkscape:groupmode="layer"
     inkscape:label="ink_ext_XXXXXX"
     transform="matrix(1.3333333,0,0,-1.3333333,0,411.59464)"><g
       id="g12"
       transform="matrix(0.20582725,0,0,0.20582725,60.660854,95.521263)"><path
         d="m 193.5,482.344 h -110 v -100 h 110 v 100"
         style="fill:#099cec;fill-opacity:1;fill-rule:nonzero;stroke:none"
         id="path14"
         inkscape:connector-curvature="0" /><path
         d="m 323.5,482.344 h -110 v -100 h 110 v 100"
         style="fill:#099cec;fill-opacity:1;fill-rule:nonzero;stroke:none"
         id="path16"
         inkscape:connector-curvature="0" /><path
         d="m 453.5,482.344 h -110 v -100 h 110 v 100"
         style="fill:#099cec;fill-opacity:1;fill-rule:nonzero;stroke:none"
         id="path18"
         inkscape:connector-curvature="0" /><path
         d="m 583.5,482.344 h -110 v -100 h 110 v 100"
         style="fill:#099cec;fill-opacity:1;fill-rule:nonzero;stroke:none"
         id="path20"
         inkscape:connector-curvature="0" /><path
         d="m 713.5,482.344 h -110 v -100 h 110 v 100"
         style="fill:#099cec;fill-opacity:1;fill-rule:nonzero;stroke:none"
         id="path22"
         inkscape:connector-curvature="0" /><path
         d="m 323.5,602.344 h -110 v -100 h 110 v 100"
         style="fill:#099cec;fill-opacity:1;fill-rule:nonzero;stroke:none"
         id="path24"
         inkscape:connector-curvature="0" /><path
         d="m 453.5,602.344 h -110 v -100 h 110 v 100"
         style="fill:#099cec;fill-opacity:1;fill-rule:nonzero;stroke:none"
         id="path26"
         inkscape:connector-curvature="0" /><path
         d="m 583.5,602.344 h -110 v -100 h 110 v 100"
         style="fill:#099cec;fill-opacity:1;fill-rule:nonzero;stroke:none"
         id="path28"
         inkscape:connector-curvature="0" /><path
         d="m 583.5,722.344 h -110 v -100 h 110 v 100"
         style="fill:#099cec;fill-opacity:1;fill-rule:nonzero;stroke:none"
         id="path30"
         inkscape:connector-curvature="0" /><path
         d="m 1041.14,451.473 c -22.58,15.195 -81.898,21.679 -125.023,10.062 -2.324,42.965 -24.472,79.164 -65,110.738 l -15,10.071 -10,-15.102 c -19.648,-29.828 -27.929,-69.566 -25,-105.707 2.317,-22.254 10.059,-47.277 25,-65.433 -11.457,-8.899 -47.031,-26.082 -95,-25.168 H 16.1172 C 3.40234,295.43 25.1719,8.51563 356.117,8.51563 c 245.684,0 447.559,110.48837 540,342.28537 30.41,-0.5 110.703,-5.453 150.003,70.465 0.95,1.281 10,20.136 10,20.136 l -14.98,10.071"
         style="fill:#099cec;fill-opacity:1;fill-rule:nonzero;stroke:none"
         id="path32"
         inkscape:connector-curvature="0" /><path
         d="M 280.285,144.832 C 198.703,116.531 110.863,112.438 92.5039,113.262 153.695,62.2266 262.746,-34.082 442.504,20.9063 409.672,29.832 332.238,59.668 280.285,144.832"
         style="fill:#ffffff;fill-opacity:1;fill-rule:nonzero;stroke:none"
         id="path34"
         inkscape:connector-curvature="0" /><path
         d="m 347.27,245.508 c 19.199,0 34.765,-15.676 34.765,-35 0,-19.336 -15.566,-35 -34.765,-35 -19.2,0 -34.766,15.664 -34.766,35 0,19.324 15.566,35 34.766,35"
         style="fill:#ffffff;fill-opacity:1;fill-rule:nonzero;stroke:none"
         id="path36"
         inkscape:connector-curvature="0" /><path
         d="m 352.504,220.34 c 0,3.203 1.582,5.937 3.906,7.781 -2.722,1.406 -5.769,2.285 -9.043,2.285 -10.976,0 -19.863,-8.953 -19.863,-20 0,-11.054 8.887,-20 19.863,-20 10.977,0 19.863,8.946 19.863,20 l -0.117,1.145 c -1.394,-0.75 -2.922,-1.281 -4.609,-1.281 -5.527,0 -10,4.503 -10,10.07"
         style="fill:#4d5c64;fill-opacity:1;fill-rule:nonzero;stroke:none"
         id="path38"
         inkscape:connector-curvature="0" /><path
         d="m 1038.18,453.297 c -15.45,8.762 -43.582,14.187 -72.633,14.187 -16.942,0 -34.195,-1.843 -49.43,-5.949 -0.051,0.91 -0.105,1.813 -0.176,2.715 13.727,3.629 29.481,5.246 45.207,5.246 31.247,0 62.362,-6.402 77.032,-16.199"
         style="fill:#f2f2f2;fill-opacity:1;fill-rule:nonzero;stroke:none"
         id="path40"
         inkscape:connector-curvature="0" /><path
         d="m 405.855,11.5273 c 11.879,2.4336 24.086,5.5352 36.649,9.379 -15.379,4.1796 -40.539,12.9492 -68.285,29.8398 228.562,5.5625 395.937,122.8749 529.73,399.7849 l 9.18,12.938 c 0.93,0.269 1.867,0.531 2.812,0.781 0.071,-0.902 0.125,-1.805 0.176,-2.715 15.235,4.106 32.488,5.949 49.43,5.949 29.051,0 57.183,-5.425 72.633,-14.187 0.02,-0.016 0.05,-0.035 0.08,-0.051 l 15.1,-10.234 -7.6,-16.106 c -34.68,-70.289 -109.983,-75.574 -145.24,-75.574 -2.868,0 -5.477,0.035 -7.77,0.07 C 806.328,137.387 626.801,27.0078 405.855,11.5273"
         style="fill:#f2f2f2;fill-opacity:1;fill-rule:nonzero;stroke:none"
         id="path42"
         inkscape:connector-curvature="0" /><path
         d="m 405.855,11.5273 c 11.879,2.4336 24.086,5.5352 36.649,9.379 -15.379,4.1796 -40.539,12.9492 -68.285,29.8398 228.562,5.5625 395.937,122.8749 529.73,399.7849 l 9.18,12.938 c 0.93,0.269 1.867,0.531 2.812,0.781 0.071,-0.902 0.125,-1.805 0.176,-2.715 15.235,4.106 32.488,5.949 49.43,5.949 29.051,0 57.183,-5.425 72.633,-14.187 0.02,-0.016 0.05,-0.035 0.08,-0.051 l 15.1,-10.234 -7.6,-16.106 c -34.68,-70.289 -109.983,-75.574 -145.24,-75.574 -2.868,0 -5.477,0.035 -7.77,0.07 C 806.328,137.387 626.801,27.0078 405.855,11.5273"
         style="fill:#0994e0;fill-opacity:1;fill-rule:nonzero;stroke:none"
         id="path44"
         inkscape:connector-curvature="0" /><path
         d="M 233.164,23.3672 C 12.5273,80.2461 -1.33594,297.387 3.12891,362.797 H 14.9805 C 6.77344,290.867 27.0859,91.2969 221.367,28.0195 c 3.867,-1.6132 7.793,-3.164 11.797,-4.6523"
         style="fill:#f2f2f2;fill-opacity:1;fill-rule:nonzero;stroke:none"
         id="path46"
         inkscape:connector-curvature="0" /><path
         d="M 221.367,28.0195 C 27.0859,91.2969 6.77344,290.867 14.9805,362.797 H 43.1289 C 53.2539,259.422 78.2656,171.902 145.281,116.098 c -21.265,-2.203 -38.144,-2.93 -47.6716,-2.93 -2.0547,0 -3.7656,0.031 -5.1055,0.094 C 122.797,87.9961 164.844,51.6289 221.367,28.0195"
         style="fill:#f2f2f2;fill-opacity:1;fill-rule:nonzero;stroke:none"
         id="path48"
         inkscape:connector-curvature="0" /><path
         d="M 221.367,28.0195 C 27.0859,91.2969 6.77344,290.867 14.9805,362.797 H 43.1289 C 53.2539,259.422 78.2656,171.902 145.281,116.098 c -21.265,-2.203 -38.144,-2.93 -47.6716,-2.93 -2.0547,0 -3.7656,0.031 -5.1055,0.094 C 122.797,87.9961 164.844,51.6289 221.367,28.0195"
         style="fill:#0994e0;fill-opacity:1;fill-rule:nonzero;stroke:none"
         id="path50"
         inkscape:connector-curvature="0" /><path
         d="m 350.758,9.62891 c -44.582,0 -83.555,4.96089 -117.594,13.73829 -4.004,1.4883 -7.93,3.0391 -11.797,4.6523 -56.523,23.6094 -98.57,59.9766 -128.8631,85.2425 1.3399,-0.063 3.0508,-0.094 5.1055,-0.094 9.5276,0 26.4066,0.727 47.6716,2.93 49.449,-41.1761 121.762,-65.0863 227.848,-65.3792 0.363,0.0117 0.726,0.0195 1.09,0.0273 27.746,-16.8906 52.906,-25.6602 68.285,-29.8398 -12.563,-3.8438 -24.77,-6.9454 -36.649,-9.379 -18.093,-1.2656 -36.48,-1.89839 -55.097,-1.89839"
         style="fill:#f2f2f2;fill-opacity:1;fill-rule:nonzero;stroke:none"
         id="path52"
         inkscape:connector-curvature="0" /><path
         d="m 350.758,9.62891 c -44.582,0 -83.555,4.96089 -117.594,13.73829 -4.004,1.4883 -7.93,3.0391 -11.797,4.6523 -56.523,23.6094 -98.57,59.9766 -128.8631,85.2425 1.3399,-0.063 3.0508,-0.094 5.1055,-0.094 9.5276,0 26.4066,0.727 47.6716,2.93 49.449,-41.1761 121.762,-65.0863 227.848,-65.3792 0.363,0.0117 0.726,0.0195 1.09,0.0273 27.746,-16.8906 52.906,-25.6602 68.285,-29.8398 -12.563,-3.8438 -24.77,-6.9454 -36.649,-9.379 -18.093,-1.2656 -36.48,-1.89839 -55.097,-1.89839"
         style="fill:#f2f2f2;fill-opacity:1;fill-rule:nonzero;stroke:none"
         id="path54"
         inkscape:connector-curvature="0" /><path
         d="m 1038.62,437 c -1.24,-2.523 -2.29,-4.648 -3.1,-6.246 -0.44,-0.863 -0.79,-1.559 -1.77,-3.285 -14.84,-28.684 -36.637,-46.637 -64.293,-56.352 -21.887,-7.695 -41.727,-9.422 -71.465,-8.804 -0.293,0.003 -2.156,0.042 -5.207,0.101 l -6.875,0.113 -2.566,-6.425 C 795.863,136.727 604.828,20.1367 352.633,20.1367 242.16,20.1367 161.203,52.2813 106,109.168 c 10.566,-1.172 21.289,-1.836 32.18,-1.836 51.992,0 100.496,13.594 142.742,37.5 -3.496,5.789 -6.746,11.582 -9.746,17.617 -39.246,-22.402 -84.754,-34.98 -132.996,-34.98 -17.961,0 -35.489,1.789 -52.473,5.129 -8.4961,11.062 -16.2695,22.8 -23.2304,35.293 -20.0196,35.945 -32.7657,76.277 -38.7305,117.566 -4.1406,28.633 -4.6992,56.422 -2.4141,76.957 H 63.5 v -0.07 h 130 20 110 20 110 20 110 20 130 v 0.191 c 39.609,0.449 76.652,12.703 95.234,27.145 l 8.204,6.367 -6.614,8.027 c -12.383,15.043 -20.359,37.09 -22.754,60.059 -2.84,35.051 5.657,72.18 23.391,99.097 l 4.441,6.7 6.379,-4.282 c 38.821,-30.332 58.75,-64.019 60.86,-103.105 l 0.675,-12.391 11.895,3.211 c 38.941,10.489 95.959,5.364 116.869,-8.711 l 7.74,-5.195 c -0.36,-0.734 -0.71,-1.449 -1.2,-2.457 z M 83.5,482.344 h 110 v -99.793 h -110 z m 130,120 h 110 v -100 h -110 z m 130,0 h 110 v -100 h -110 z m 130,120 h 110 v -100 h -110 z m 110,-220 h -110 v 100 h 110 z m 130,-20 v -99.797 h -110 v 99.797 z m -390,-99.793 h -110 v 99.793 h 110 z m 130,-0.004 -110,0.004 v 99.793 h 110 z m 130,0 h -110 v 99.797 h 110 z m 337.988,92.887 c -5.527,40.449 -28.211,75.554 -68.015,106.57 l -23.614,15.851 -15.546,-23.476 C 793.98,543.508 784.445,501.883 787.66,462.27 c 2.363,-22.719 9.387,-44.641 20.656,-61.993 -17.023,-9.488 -44.953,-17.246 -74.816,-17.648 v 119.715 h -130 v 100 20 120 h -150 v -120 h -110 -20 -130 v -120 H 63.5 V 382.551 H 12.6328 4.18359 L 2.76953,374.168 C -1.12891,351.043 -1.07031,317.305 3.94922,282.559 10.2578,238.941 23.7344,196.27 45.0352,158.035 100.504,58.4844 201.273,0 352.633,0 c 257.539,0 454.812,118.902 546.66,342.145 31.031,-0.555 52.48,1.421 76.758,9.96 32.179,11.313 57.969,32.497 75.259,65.708 0.97,1.605 2.39,4.441 5.39,10.593 1.1,2.227 2.25,4.61 3.4,6.992 0.4,0.829 0.77,1.602 1.53,3.18 l 3.78,7.887 -22.21,14.93 c -24.03,16.168 -78.794,22.261 -121.712,14.039"
         style="fill:#066da5;fill-opacity:1;fill-rule:nonzero;stroke:none"
         id="path56"
         inkscape:connector-curvature="0" /><path
         d="m 103.5,402.344 h 10 v 60 h -10 v -60"
         style="fill:#066da5;fill-opacity:1;fill-rule:nonzero;stroke:none"
         id="path58"
         inkscape:connector-curvature="0" /><path
         d="m 133.5,402.344 h 10 v 60 h -10 v -60"
         style="fill:#066da5;fill-opacity:1;fill-rule:nonzero;stroke:none"
         id="path60"
         inkscape:connector-curvature="0" /><path
         d="m 163.5,462.344 v -60 h 10 v 60 h -10"
         style="fill:#066da5;fill-opacity:1;fill-rule:nonzero;stroke:none"
         id="path62"
         inkscape:connector-curvature="0" /><path
         d="m 243.5,462.344 h -10 v -60 h 10 v 60"
         style="fill:#066da5;fill-opacity:1;fill-rule:nonzero;stroke:none"
         id="path64"
         inkscape:connector-curvature="0" /><path
         d="m 273.5,462.344 h -10 v -60 h 10 v 60"
         style="fill:#066da5;fill-opacity:1;fill-rule:nonzero;stroke:none"
         id="path66"
         inkscape:connector-curvature="0" /><path
         d="m 303.5,462.344 h -10 v -60 h 10 v 60"
         style="fill:#066da5;fill-opacity:1;fill-rule:nonzero;stroke:none"
         id="path68"
         inkscape:connector-curvature="0" /><path
         d="m 373.5,462.344 h -10 v -60 h 10 v 60"
         style="fill:#066da5;fill-opacity:1;fill-rule:nonzero;stroke:none"
         id="path70"
         inkscape:connector-curvature="0" /><path
         d="m 403.5,462.344 h -10 v -60 h 10 v 60"
         style="fill:#066da5;fill-opacity:1;fill-rule:nonzero;stroke:none"
         id="path72"
         inkscape:connector-curvature="0" /><path
         d="m 433.5,462.344 h -10 v -60 h 10 v 60"
         style="fill:#066da5;fill-opacity:1;fill-rule:nonzero;stroke:none"
         id="path74"
         inkscape:connector-curvature="0" /><path
         d="m 503.5,462.344 h -10 v -60 h 10 v 60"
         style="fill:#066da5;fill-opacity:1;fill-rule:nonzero;stroke:none"
         id="path76"
         inkscape:connector-curvature="0" /><path
         d="m 533.5,462.344 h -10 v -60 h 10 v 60"
         style="fill:#066da5;fill-opacity:1;fill-rule:nonzero;stroke:none"
         id="path78"
         inkscape:connector-curvature="0" /><path
         d="m 563.5,462.344 h -10 v -60 h 10 v 60"
         style="fill:#066da5;fill-opacity:1;fill-rule:nonzero;stroke:none"
         id="path80"
         inkscape:connector-curvature="0" /><path
         d="m 633.5,462.344 h -10 v -60 h 10 v 60"
         style="fill:#066da5;fill-opacity:1;fill-rule:nonzero;stroke:none"
         id="path82"
         inkscape:connector-curvature="0" /><path
         d="m 663.5,462.344 h -10 v -60 h 10 v 60"
         style="fill:#066da5;fill-opacity:1;fill-rule:nonzero;stroke:none"
         id="path84"
         inkscape:connector-curvature="0" /><path
         d="m 693.5,462.344 h -10 v -60 h 10 v 60"
         style="fill:#066da5;fill-opacity:1;fill-rule:nonzero;stroke:none"
         id="path86"
         inkscape:connector-curvature="0" /><path
         d="m 263.5,522.344 h 10 v 60 h -10 v -60"
         style="fill:#066da5;fill-opacity:1;fill-rule:nonzero;stroke:none"
         id="path88"
         inkscape:connector-curvature="0" /><path
         d="m 293.5,522.344 h 10 v 60 h -10 v -60"
         style="fill:#066da5;fill-opacity:1;fill-rule:nonzero;stroke:none"
         id="path90"
         inkscape:connector-curvature="0" /><path
         d="m 363.5,522.344 h 10 v 60 h -10 v -60"
         style="fill:#066da5;fill-opacity:1;fill-rule:nonzero;stroke:none"
         id="path92"
         inkscape:connector-curvature="0" /><path
         d="m 393.5,522.344 h 10 v 60 h -10 v -60"
         style="fill:#066da5;fill-opacity:1;fill-rule:nonzero;stroke:none"
         id="path94"
         inkscape:connector-curvature="0" /><path
         d="m 423.5,522.344 h 10 v 60 h -10 v -60"
         style="fill:#066da5;fill-opacity:1;fill-rule:nonzero;stroke:none"
         id="path96"
         inkscape:connector-curvature="0" /><path
         d="m 503.5,582.344 h -10 v -60 h 10 v 60"
         style="fill:#066da5;fill-opacity:1;fill-rule:nonzero;stroke:none"
         id="path98"
         inkscape:connector-curvature="0" /><path
         d="m 533.5,582.344 h -10 v -60 h 10 v 60"
         style="fill:#066da5;fill-opacity:1;fill-rule:nonzero;stroke:none"
         id="path100"
         inkscape:connector-curvature="0" /><path
         d="m 563.5,582.344 h -10 v -60 h 10 v 60"
         style="fill:#066da5;fill-opacity:1;fill-rule:nonzero;stroke:none"
         id="path102"
         inkscape:connector-curvature="0" /><path
         d="m 523.5,642.344 h 10 v 60 h -10 v -60"
         style="fill:#066da5;fill-opacity:1;fill-rule:nonzero;stroke:none"
         id="path104"
         inkscape:connector-curvature="0" /><path
         d="m 493.5,642.344 h 10 v 60 h -10 v -60"
         style="fill:#066da5;fill-opacity:1;fill-rule:nonzero;stroke:none"
         id="path106"
         inkscape:connector-curvature="0" /><path
         d="m 553.5,642.344 h 10 v 60 h -10 v -60"
         style="fill:#066da5;fill-opacity:1;fill-rule:nonzero;stroke:none"
         id="path108"
         inkscape:connector-curvature="0" /><path
         d="m 233.5,522.344 h 10 v 60 h -10 v -60"
         style="fill:#066da5;fill-opacity:1;fill-rule:nonzero;stroke:none"
         id="path110"
         inkscape:connector-curvature="0" /><path
         d="m 2414.46,270.965 c 2.86,9.941 7.25,19.023 13.16,27.258 5.91,8.218 12.89,15.269 20.95,21.144 8.06,5.875 16.92,10.442 26.59,13.696 9.67,3.253 19.6,4.878 29.81,4.878 10.21,0 20.1,-1.625 29.68,-4.878 9.58,-3.254 18.35,-7.821 26.32,-13.696 7.97,-5.875 14.95,-12.926 20.95,-21.144 5.99,-8.235 10.52,-17.317 13.56,-27.258 z m 196.87,79.183 c -29.72,29.649 -65.17,44.473 -106.36,44.473 -41.54,0 -77,-14.824 -106.36,-44.473 -29.37,-29.652 -44.05,-65.445 -44.05,-107.386 0,-41.946 14.68,-77.742 44.05,-107.395 29.36,-29.644 64.82,-44.4725 106.36,-44.4725 37.78,0 70.55,12.2965 98.31,36.8865 5.37,5.598 8.05,12.383 8.05,20.332 0,8.133 -2.64,14.871 -7.93,20.203 -5.27,5.332 -11.94,8 -20,8 -6.99,-0.175 -13.16,-2.531 -18.53,-7.05 -8.42,-7.227 -17.55,-12.657 -27.41,-16.27 -9.84,-3.613 -20.67,-5.422 -32.49,-5.422 -10.39,0 -20.37,1.621 -29.95,4.887 -9.58,3.25 -18.35,7.809 -26.31,13.687 -7.97,5.879 -14.92,12.93 -20.83,21.157 -5.9,8.218 -10.38,17.3 -13.42,27.254 h 212.71 c 7.88,0 14.55,2.668 20.02,8 5.46,5.332 8.19,12.07 8.19,20.203 0,20.965 -3.68,40.449 -11.01,58.437 -7.34,17.989 -18.36,34.309 -33.04,48.949"
         style="fill:#066da5;fill-opacity:1;fill-rule:nonzero;stroke:none"
         id="path112"
         inkscape:connector-curvature="0" /><path
         d="m 2905.98,375.637 c -5.02,4.883 -11.33,8.726 -18.94,11.531 -7.6,2.801 -15.93,4.742 -24.98,5.828 -9.04,1.082 -17.5,1.625 -25.38,1.625 -17.9,0 -34.73,-2.891 -50.48,-8.676 -15.77,-5.785 -30.36,-14.101 -43.79,-24.953 v 5.426 c 0,7.773 -2.73,14.422 -8.19,19.934 -5.47,5.511 -12.04,8.269 -19.74,8.269 -7.88,0 -14.55,-2.758 -20.01,-8.269 -5.46,-5.512 -8.2,-12.161 -8.2,-19.934 V 119.102 c 0,-7.778 2.74,-14.414 8.2,-19.934 5.46,-5.5196 12.13,-8.2735 20.01,-8.2735 7.7,0 14.27,2.7539 19.74,8.2735 5.46,5.52 8.19,12.156 8.19,19.934 v 123.66 c 0,13.191 2.47,25.578 7.39,37.148 4.92,11.57 11.64,21.653 20.15,30.238 8.49,8.59 18.48,15.368 29.94,20.336 11.46,4.973 23.73,7.457 36.79,7.457 13.26,0 25.52,-2.253 36.8,-6.777 4.47,-1.984 8.42,-2.98 11.82,-2.98 3.94,0 7.6,0.718 11.01,2.168 3.4,1.445 6.36,3.48 8.86,6.101 2.51,2.621 4.52,5.649 6.04,9.082 1.53,3.438 2.29,7.145 2.29,11.121 0,7.778 -2.51,14.106 -7.52,18.981"
         style="fill:#066da5;fill-opacity:1;fill-rule:nonzero;stroke:none"
         id="path114"
         inkscape:connector-curvature="0" /><path
         d="m 2324.2,366.418 c 0,3.797 -0.76,7.414 -2.28,10.848 -1.53,3.433 -3.54,6.461 -6.05,9.086 -2.51,2.621 -5.46,4.652 -8.85,6.101 -3.41,1.445 -7.08,2.168 -11.02,2.168 -5.55,0 -10.57,-1.445 -15.04,-4.34 L 2120.35,284.793 v 211.523 c 0,7.954 -2.74,14.688 -8.2,20.204 -5.46,5.515 -12.04,8.269 -19.74,8.269 -7.87,0 -14.54,-2.754 -20,-8.269 -5.47,-5.516 -8.2,-12.25 -8.2,-20.204 V 119.371 c 0,-7.769 2.73,-14.461 8.2,-20.0663 5.46,-5.6055 12.13,-8.4102 20,-8.4102 7.7,0 14.28,2.8047 19.74,8.4102 5.46,5.6053 8.2,12.2973 8.2,20.0663 v 97.895 l 32.76,21.699 124.09,-140.7423 c 5.01,-4.8829 11.28,-7.3282 18.8,-7.3282 3.94,0 7.61,0.7227 11.02,2.168 3.39,1.4492 6.34,3.4805 8.85,6.1055 2.51,2.617 4.52,5.645 6.05,9.082 1.52,3.438 2.28,7.051 2.28,10.852 0,7.41 -2.59,14.011 -7.79,19.793 l -115.49,131.25 112.54,73.765 c 7.16,4.883 10.74,12.387 10.74,22.508"
         style="fill:#066da5;fill-opacity:1;fill-rule:nonzero;stroke:none"
         id="path116"
         inkscape:connector-curvature="0" /><path
         d="m 1346.65,206.016 c -4.93,-11.489 -11.64,-21.567 -20.14,-30.239 -8.51,-8.679 -18.49,-15.547 -29.95,-20.613 -11.46,-5.059 -23.72,-7.59 -36.8,-7.59 -13.25,0 -25.61,2.531 -37.06,7.59 -11.47,5.066 -21.4,11.887 -29.82,20.481 -8.41,8.582 -15.08,18.66 -20,30.234 -4.93,11.57 -7.39,23.863 -7.39,36.883 0,13.015 2.46,25.301 7.39,36.875 4.92,11.574 11.59,21.648 20,30.238 8.42,8.59 18.35,15.418 29.82,20.477 11.45,5.062 23.81,7.589 37.06,7.589 13.08,0 25.34,-2.527 36.8,-7.589 11.46,-5.059 21.44,-11.93 29.95,-20.614 8.5,-8.675 15.21,-18.754 20.14,-30.238 4.93,-11.477 7.39,-23.723 7.39,-36.738 0,-13.02 -2.46,-25.266 -7.39,-36.746 z m 35.32,318.773 c -8.06,0 -14.73,-2.668 -20.01,-8 -5.29,-5.332 -7.92,-12.062 -7.92,-20.203 V 361.27 c -27.22,22.234 -58.65,33.351 -94.28,33.351 -41.54,0 -76.99,-14.824 -106.36,-44.473 -29.36,-29.652 -44.04,-65.445 -44.04,-107.386 0,-41.946 14.68,-77.742 44.04,-107.395 29.37,-29.644 64.82,-44.4725 106.36,-44.4725 41.18,0 76.64,14.8285 106.37,44.4725 29.36,29.289 44.04,65.09 44.04,107.395 v 253.824 c 0,8.141 -2.72,14.871 -8.19,20.203 -5.46,5.332 -12.13,8 -20.01,8"
         style="fill:#066da5;fill-opacity:1;fill-rule:nonzero;stroke:none"
         id="path118"
         inkscape:connector-curvature="0" /><path
         d="m 1679.44,206.016 c -4.92,-11.489 -11.64,-21.567 -20.15,-30.239 -8.5,-8.679 -18.49,-15.547 -29.94,-20.613 -11.47,-5.059 -23.73,-7.59 -36.8,-7.59 -13.25,0 -25.6,2.531 -37.07,7.59 -11.45,5.066 -21.39,11.887 -29.8,20.481 -8.42,8.582 -15.09,18.66 -20.01,30.234 -4.93,11.57 -7.39,23.863 -7.39,36.883 0,13.015 2.46,25.301 7.39,36.875 4.92,11.574 11.59,21.648 20.01,30.238 8.41,8.59 18.35,15.418 29.8,20.477 11.47,5.062 23.82,7.589 37.07,7.589 13.07,0 25.33,-2.527 36.8,-7.589 11.45,-5.059 21.44,-11.93 29.94,-20.614 8.51,-8.675 15.23,-18.754 20.15,-30.238 4.92,-11.477 7.38,-23.723 7.38,-36.738 0,-13.02 -2.46,-25.266 -7.38,-36.746 z m 19.47,144.132 c -29.73,29.649 -65.18,44.473 -106.36,44.473 -41.54,0 -76.99,-14.824 -106.35,-44.473 -29.37,-29.652 -44.06,-65.445 -44.06,-107.386 0,-41.946 14.69,-77.742 44.06,-107.395 29.36,-29.644 64.81,-44.4725 106.35,-44.4725 41.18,0 76.63,14.8285 106.36,44.4725 29.37,29.289 44.05,65.09 44.05,107.395 -0.18,20.965 -3.89,40.398 -11.15,58.301 -7.25,17.902 -18.21,34.257 -32.9,49.085"
         style="fill:#066da5;fill-opacity:1;fill-rule:nonzero;stroke:none"
         id="path120"
         inkscape:connector-curvature="0" /><path
         d="m 1857.92,310.148 c 8.6,8.59 18.63,15.368 30.09,20.336 11.46,4.973 23.72,7.457 36.79,7.457 11.83,0 22.74,-1.988 32.77,-5.961 10.03,-3.98 19.61,-9.851 28.74,-17.628 5.37,-4.34 11.46,-6.508 18.26,-6.508 8.06,0 14.73,2.711 20.01,8.136 5.29,5.422 7.92,12.204 7.92,20.336 0,8.497 -3.22,15.641 -9.66,21.426 -27.58,24.586 -60.26,36.879 -98.04,36.879 -41.53,0 -76.99,-14.824 -106.36,-44.473 -29.36,-29.652 -44.04,-65.445 -44.04,-107.386 0,-41.946 14.68,-77.742 44.04,-107.395 29.37,-29.644 64.83,-44.4725 106.36,-44.4725 37.61,0 70.28,12.2965 98.04,36.8865 5.9,5.965 8.86,12.918 8.86,20.879 0,8.137 -2.64,14.863 -7.93,20.203 -5.28,5.332 -11.95,8 -20.01,8 -6.79,-0.183 -12.7,-2.168 -17.72,-5.968 -8.96,-7.774 -18.44,-13.602 -28.47,-17.489 -10.03,-3.886 -20.94,-5.832 -32.77,-5.832 -13.07,0 -25.33,2.485 -36.79,7.453 -11.46,4.969 -21.49,11.758 -30.09,20.34 -8.59,8.586 -15.35,18.676 -20.27,30.235 -4.93,11.574 -7.39,23.957 -7.39,37.16 0,13.191 2.46,25.578 7.39,37.148 4.92,11.57 11.68,21.653 20.27,30.238"
         style="fill:#066da5;fill-opacity:1;fill-rule:nonzero;stroke:none"
         id="path122"
         inkscape:connector-curvature="0" /><path
         d="m 2821.3,97.7813 c -8.86,0 -15.35,6.9527 -15.35,15.7107 0,8.637 6.49,15.703 15.24,15.703 8.76,0 15.1,-7.066 15.1,-15.828 0,-8.633 -6.34,-15.5857 -14.99,-15.5857 z m -0.11,35.3787 c -11.27,0 -20.27,-8.758 -20.27,-19.668 0,-11.16 9,-19.91 20.27,-19.91 11.39,0 20.14,8.75 20.14,19.91 0,10.91 -8.75,19.668 -20.14,19.668"
         style="fill:#066da5;fill-opacity:1;fill-rule:nonzero;stroke:none"
         id="path124"
         inkscape:connector-curvature="0" /><path
         d="m 2820.35,114.324 h -2.16 v 5.645 c 0.48,0.117 1.32,0.234 2.52,0.234 2.88,0 4.2,-1.199 4.2,-3 0,-2.039 -2.04,-2.879 -4.56,-2.879 z m 5.4,-1.433 v 0.242 c 2.39,0.715 4.07,2.39 4.07,4.551 0,1.921 -0.84,3.488 -1.92,4.316 -1.44,0.84 -3.11,1.445 -6.83,1.445 -3.24,0 -5.76,-0.246 -7.56,-0.605 v -19.668 h 4.56 v 7.922 h 2.16 c 2.52,0 3.72,-0.957 4.07,-3.117 0.61,-2.286 0.97,-4.082 1.56,-4.805 h 4.93 c -0.49,0.723 -0.84,1.926 -1.45,4.922 -0.6,2.636 -1.68,4.074 -3.59,4.797"
         style="fill:#066da5;fill-opacity:1;fill-rule:nonzero;stroke:none"
         id="path126"
         inkscape:connector-curvature="0" /></g></g></svg>